<svg xmlns="http://www.w3.org/2000/svg" version="1.1" xmlns:xlink="http://www.w3.org/1999/xlink" width="512" height="512" x="0" y="0" viewBox="0 0 32 32" style="enable-background:new 0 0 512 512" xml:space="preserve" class=""><g><path d="M15 24a1 1 0 0 1-1 1h-.382l.276.553a1 1 0 1 1-1.789.894L11.382 25H10v1.382l1.447.724a1 1 0 0 1-.894 1.789L10 28.618V29a1 1 0 1 1-2 0v-.382l-.553.276a1.001 1.001 0 0 1-.895-1.789L8 26.382V25H6.618l-.724 1.447a.998.998 0 0 1-1.341.448 1 1 0 0 1-.447-1.342L4.382 25H4a1 1 0 1 1 0-2h.382l-.276-.553a1 1 0 0 1 1.789-.895L6.618 23H8v-1.382l-1.447-.724a1 1 0 0 1 .895-1.789l.552.277V19a1 1 0 1 1 2 0v.382l.553-.276a1 1 0 0 1 .895 1.789L10 21.618V23h1.382l.724-1.447a1 1 0 1 1 1.789.895l-.277.552H14a1 1 0 0 1 1 1zM28 2H4c-1.103 0-2 .897-2 2v10c0 1.103.897 2 2 2h24c1.103 0 2-.897 2-2V4c0-1.103-.897-2-2-2zM4 4h11v10H4zm13 10V4h11l.001 10zM18.999 29a1.001 1.001 0 0 1-.831-1.555c.675-1.013.417-1.789-.097-3.074-.532-1.331-1.195-2.988.097-4.926a.999.999 0 1 1 1.664 1.11c-.675 1.013-.417 1.789.097 3.074.532 1.331 1.195 2.988-.097 4.926a1 1 0 0 1-.833.445zM22.999 29a1.001 1.001 0 0 1-.831-1.555c.675-1.013.417-1.789-.097-3.074-.532-1.331-1.195-2.988.097-4.926a.999.999 0 1 1 1.664 1.11c-.675 1.013-.417 1.789.097 3.074.532 1.331 1.195 2.988-.097 4.926a1 1 0 0 1-.833.445zM26.999 29a1.001 1.001 0 0 1-.831-1.555c.675-1.013.417-1.789-.097-3.074-.532-1.331-1.195-2.988.097-4.926a.999.999 0 1 1 1.664 1.11c-.675 1.013-.417 1.789.097 3.074.532 1.331 1.195 2.988-.097 4.926a1 1 0 0 1-.833.445z" fill="#FC6240" opacity="1" data-original="#000000" class=""></path><path d="M13 7H6a1 1 0 0 1 0-2h7a1 1 0 0 1 0 2zM7 10H6a1 1 0 0 1 0-2h1a1 1 0 0 1 0 2zM13 10h-3a1 1 0 0 1 0-2h3a1 1 0 0 1 0 2zM13 13H6a1 1 0 0 1 0-2h7a1 1 0 0 1 0 2zM26 7h-7a1 1 0 0 1 0-2h7a1 1 0 0 1 0 2zM20 10h-1a1 1 0 0 1 0-2h1a1 1 0 0 1 0 2zM26 10h-3a1 1 0 0 1 0-2h3a1 1 0 0 1 0 2zM26 13h-7a1 1 0 0 1 0-2h7a1 1 0 0 1 0 2z" fill="#FC6240" opacity="1" data-original="#000000" class=""></path></g></svg>