<svg xmlns="http://www.w3.org/2000/svg" version="1.1" xmlns:xlink="http://www.w3.org/1999/xlink" width="512" height="512" x="0" y="0" viewBox="0 0 64 64" style="enable-background:new 0 0 512 512" xml:space="preserve" class=""><g><path d="M6 24.999c-3.309 0-6-2.691-6-6a1 1 0 1 1 2 0c0 2.206 1.794 4 4 4a1 1 0 1 1 0 2z" fill="#FC6240" opacity="1" data-original="#000000" class=""></path><path d="M6 21.999c-1.654 0-3-1.346-3-3a1 1 0 1 1 2 0 1 1 0 0 0 1 1 1 1 0 1 1 0 2z" fill="#FC6240" opacity="1" data-original="#000000" class=""></path><path d="M4 19.999H1a1 1 0 1 1 0-2h3a1 1 0 1 1 0 2zM58 24.999a1 1 0 1 1 0-2c2.206 0 4-1.794 4-4a1 1 0 1 1 2 0c0 3.309-2.691 6-6 6z" fill="#FC6240" opacity="1" data-original="#000000" class=""></path><path d="M58 21.999a1 1 0 1 1 0-2 1 1 0 0 0 1-1 1 1 0 1 1 2 0c0 1.654-1.346 3-3 3z" fill="#FC6240" opacity="1" data-original="#000000" class=""></path><path d="M63 19.999h-3a1 1 0 1 1 0-2h3a1 1 0 1 1 0 2zM58 21.999H6a1 1 0 1 1 0-2h52a1 1 0 1 1 0 2zM58 24.999H6a1 1 0 1 1 0-2h52a1 1 0 1 1 0 2zM58 28H6a1 1 0 1 1 0-2h52a1 1 0 1 1 0 2zM6 43.001c-3.309 0-6-2.691-6-6a1 1 0 1 1 2 0c0 2.206 1.794 4 4 4a1 1 0 1 1 0 2zM58 43.001a1 1 0 1 1 0-2c2.206 0 4-1.794 4-4a1 1 0 1 1 2 0c0 3.309-2.691 6-6 6z" fill="#FC6240" opacity="1" data-original="#000000" class=""></path><path d="M58 43.001H6a1 1 0 1 1 0-2h52a1 1 0 1 1 0 2zM1 38.001a1 1 0 0 1-1-1V18.999a1 1 0 1 1 2 0v18.002a1 1 0 0 1-1 1zM63 38.001a1 1 0 0 1-1-1V18.999a1 1 0 1 1 2 0v18.002a1 1 0 0 1-1 1zM16.002 38.001a1 1 0 0 1-1-1c0-2.206-1.794-4-4-4a1 1 0 1 1 0-2c3.309 0 6 2.691 6 6a1 1 0 0 1-1 1zM10 38.001c-3.309 0-6-2.691-6-6a1 1 0 1 1 2 0c0 2.206 1.794 4 4 4a1 1 0 1 1 0 2z" fill="#FC6240" opacity="1" data-original="#000000" class=""></path><path d="M11.002 33H5a1 1 0 1 1 0-2h6.002a1 1 0 1 1 0 2zM16.003 38.001h-6.002a1 1 0 1 1 0-2h6.002a1 1 0 1 1 0 2zM48.002 38.001a1 1 0 0 1-1-1c0-3.309 2.691-6 6-6a1 1 0 1 1 0 2c-2.206 0-4 1.794-4 4a1 1 0 0 1-1 1zM54.004 38.001a1 1 0 1 1 0-2c2.206 0 4-1.794 4-4a1 1 0 1 1 2 0c0 3.309-2.691 6-6 6z" fill="#FC6240" opacity="1" data-original="#000000" class=""></path><path d="M59.004 33h-6.002a1 1 0 1 1 0-2h6.002a1 1 0 1 1 0 2zM54.003 38.001h-6.002a1 1 0 1 1 0-2h6.002a1 1 0 1 1 0 2zM23 38.001c-3.309 0-6-2.691-6-6a1 1 0 1 1 2 0c0 2.206 1.794 4 4 4a1 1 0 1 1 0 2zM41 38.001a1 1 0 1 1 0-2c2.206 0 4-1.794 4-4a1 1 0 1 1 2 0c0 3.309-2.691 6-6 6z" fill="#FC6240" opacity="1" data-original="#000000" class=""></path><path d="M41 38.001H23a1 1 0 1 1 0-2h18a1 1 0 1 1 0 2zM46 33.001H18a1 1 0 1 1 0-2h28a1 1 0 1 1 0 2zM9 46.001c-2.206 0-4-1.794-4-4a1 1 0 1 1 2 0c0 1.103.897 2 2 2a1 1 0 1 1 0 2zM55 46.001a1 1 0 1 1 0-2c1.103 0 2-.897 2-2a1 1 0 1 1 2 0c0 2.206-1.794 4-4 4z" fill="#FC6240" opacity="1" data-original="#000000" class=""></path><path d="M55 46.001H9a1 1 0 1 1 0-2h46a1 1 0 1 1 0 2z" fill="#FC6240" opacity="1" data-original="#000000" class=""></path></g></svg>