<svg xmlns="http://www.w3.org/2000/svg" version="1.1" xmlns:xlink="http://www.w3.org/1999/xlink" width="512" height="512" x="0" y="0" viewBox="0 0 682.667 682.667" style="enable-background:new 0 0 512 512" xml:space="preserve"><g><defs><clipPath id="a" clipPathUnits="userSpaceOnUse"><path d="M0 512h512V0H0Z" fill="#fc6240" opacity="1" data-original="#000000"></path></clipPath></defs><g clip-path="url(#a)" transform="matrix(1.33333 0 0 -1.33333 0 682.667)"><path d="M0 0a227.272 227.272 0 0 0 58.341 7.616C183.852 7.616 285.6-94.131 285.6-219.643c0-125.51-101.748-227.258-227.259-227.258-125.512 0-227.259 101.748-227.259 227.258 0 19.711 2.564 39.249 7.564 58.142" style="stroke-linecap: round; stroke-linejoin: round; stroke-miterlimit: 2.613; stroke-dasharray: none; stroke-opacity: 1;" transform="translate(216.4 456.903)" fill="none" stroke="#FC6240" stroke-width="20px" stroke-linecap="round" stroke-linejoin="round" stroke-miterlimit="2.613" stroke-dasharray="none" stroke-opacity="" data-original="#000000" opacity="1"></path><path d="M0 0c23.806-7.506 40.534-.579 53.398 21.703a158.347 158.347 0 0 0 23.597 30.126 158.344 158.344 0 0 0 30.125 23.596c22.282 12.864 29.21 29.593 21.703 53.398" style="stroke-linecap: round; stroke-linejoin: round; stroke-miterlimit: 2.613; stroke-dasharray: none; stroke-opacity: 1;" transform="translate(86.665 296.513)" fill="none" stroke="#FC6240" stroke-width="20px" stroke-linecap="round" stroke-linejoin="round" stroke-miterlimit="2.613" stroke-dasharray="none" stroke-opacity="" data-original="#000000" opacity="1"></path><path d="M0 0a278.753 278.753 0 0 0 21.872 50.362c-5.432 5.432-6.179 12.606-3.021 18.074 23.629 42.195 49.675 68.241 91.87 91.871 5.468 3.157 12.642 2.41 18.073-3.022a278.719 278.719 0 0 0 50.363 21.871c7.43 2.39 14.844-2.309 16.813-9.658l15.078-56.583c.985-3.676-2.259-8.559-6.186-9.797-30.197-9.521-57.675-26.27-80.113-48.71-22.439-22.439-39.188-49.916-48.71-80.113-1.238-3.927-6.122-7.171-9.797-6.186L9.658-16.813C2.311-14.845-2.389-7.431 0 0Z" style="stroke-linecap: round; stroke-linejoin: round; stroke-miterlimit: 2.613; stroke-dasharray: none; stroke-opacity: 1;" transform="translate(10.627 322.218)" fill="none" stroke="#FC6240" stroke-width="20px" stroke-linecap="round" stroke-linejoin="round" stroke-miterlimit="2.613" stroke-dasharray="none" stroke-opacity="" data-original="#000000" opacity="1"></path><path d="m0 0 .004.007" style="stroke-linecap: round; stroke-linejoin: round; stroke-miterlimit: 22.926; stroke-dasharray: none; stroke-opacity: 1;" transform="translate(74.094 353.144)" fill="none" stroke="#FC6240" stroke-width="20px" stroke-linecap="round" stroke-linejoin="round" stroke-miterlimit="22.926" stroke-dasharray="none" stroke-opacity="" data-original="#000000" opacity="1"></path><path d="m0 0 .006.004" style="stroke-linecap: round; stroke-linejoin: round; stroke-miterlimit: 22.926; stroke-dasharray: none; stroke-opacity: 1;" transform="translate(158.852 437.903)" fill="none" stroke="#FC6240" stroke-width="20px" stroke-linecap="round" stroke-linejoin="round" stroke-miterlimit="22.926" stroke-dasharray="none" stroke-opacity="" data-original="#000000" opacity="1"></path><path d="M0 0c38.814 16.989 65.937 55.729 65.937 100.811 0 60.751-49.249 110-110 110-60.752 0-110-49.249-110-110 0-45.084 27.125-83.826 65.943-100.814" style="stroke-linecap: round; stroke-linejoin: round; stroke-miterlimit: 2.613; stroke-dasharray: none; stroke-opacity: 1;" transform="translate(318.804 136.451)" fill="none" stroke="#FC6240" stroke-width="20px" stroke-linecap="round" stroke-linejoin="round" stroke-miterlimit="2.613" stroke-dasharray="none" stroke-opacity="" data-original="#000000" opacity="1"></path><path d="M0 0h.007" style="stroke-linecap: round; stroke-linejoin: round; stroke-miterlimit: 22.926; stroke-dasharray: none; stroke-opacity: 1;" transform="translate(274.733 307.26)" fill="none" stroke="#FC6240" stroke-width="20px" stroke-linecap="round" stroke-linejoin="round" stroke-miterlimit="22.926" stroke-dasharray="none" stroke-opacity="" data-original="#000000" opacity="1"></path><path d="m0 0 .006.003" style="stroke-linecap: round; stroke-linejoin: round; stroke-miterlimit: 22.926; stroke-dasharray: none; stroke-opacity: 1;" transform="translate(239.735 297.878)" fill="none" stroke="#FC6240" stroke-width="20px" stroke-linecap="round" stroke-linejoin="round" stroke-miterlimit="22.926" stroke-dasharray="none" stroke-opacity="" data-original="#000000" opacity="1"></path><path d="m0 0 .004.006" style="stroke-linecap: round; stroke-linejoin: round; stroke-miterlimit: 22.926; stroke-dasharray: none; stroke-opacity: 1;" transform="translate(214.117 272.254)" fill="none" stroke="#FC6240" stroke-width="20px" stroke-linecap="round" stroke-linejoin="round" stroke-miterlimit="22.926" stroke-dasharray="none" stroke-opacity="" data-original="#000000" opacity="1"></path><path d="M0 0v.007" style="stroke-linecap: round; stroke-linejoin: round; stroke-miterlimit: 22.926; stroke-dasharray: none; stroke-opacity: 1;" transform="translate(204.742 237.254)" fill="none" stroke="#FC6240" stroke-width="20px" stroke-linecap="round" stroke-linejoin="round" stroke-miterlimit="22.926" stroke-dasharray="none" stroke-opacity="" data-original="#000000" opacity="1"></path><path d="m0 0-.003.007" style="stroke-linecap: round; stroke-linejoin: round; stroke-miterlimit: 22.926; stroke-dasharray: none; stroke-opacity: 1;" transform="translate(214.124 202.255)" fill="none" stroke="#FC6240" stroke-width="20px" stroke-linecap="round" stroke-linejoin="round" stroke-miterlimit="22.926" stroke-dasharray="none" stroke-opacity="" data-original="#000000" opacity="1"></path><path d="m0 0-.006.004" style="stroke-linecap: round; stroke-linejoin: round; stroke-miterlimit: 22.926; stroke-dasharray: none; stroke-opacity: 1;" transform="translate(239.748 176.637)" fill="none" stroke="#FC6240" stroke-width="20px" stroke-linecap="round" stroke-linejoin="round" stroke-miterlimit="22.926" stroke-dasharray="none" stroke-opacity="" data-original="#000000" opacity="1"></path><path d="M0 0h-.007" style="stroke-linecap: round; stroke-linejoin: round; stroke-miterlimit: 22.926; stroke-dasharray: none; stroke-opacity: 1;" transform="translate(274.748 167.263)" fill="none" stroke="#FC6240" stroke-width="20px" stroke-linecap="round" stroke-linejoin="round" stroke-miterlimit="22.926" stroke-dasharray="none" stroke-opacity="" data-original="#000000" opacity="1"></path><path d="m0 0-.006-.004" style="stroke-linecap: round; stroke-linejoin: round; stroke-miterlimit: 22.926; stroke-dasharray: none; stroke-opacity: 1;" transform="translate(309.747 176.644)" fill="none" stroke="#FC6240" stroke-width="20px" stroke-linecap="round" stroke-linejoin="round" stroke-miterlimit="22.926" stroke-dasharray="none" stroke-opacity="" data-original="#000000" opacity="1"></path><path d="m0 0-.003-.006" style="stroke-linecap: round; stroke-linejoin: round; stroke-miterlimit: 22.926; stroke-dasharray: none; stroke-opacity: 1;" transform="translate(335.365 202.268)" fill="none" stroke="#FC6240" stroke-width="20px" stroke-linecap="round" stroke-linejoin="round" stroke-miterlimit="22.926" stroke-dasharray="none" stroke-opacity="" data-original="#000000" opacity="1"></path><path d="M0 0v-.008" style="stroke-linecap: round; stroke-linejoin: round; stroke-miterlimit: 22.926; stroke-dasharray: none; stroke-opacity: 1;" transform="translate(344.74 237.269)" fill="none" stroke="#FC6240" stroke-width="20px" stroke-linecap="round" stroke-linejoin="round" stroke-miterlimit="22.926" stroke-dasharray="none" stroke-opacity="" data-original="#000000" opacity="1"></path><path d="m0 0 .004-.006" style="stroke-linecap: round; stroke-linejoin: round; stroke-miterlimit: 22.926; stroke-dasharray: none; stroke-opacity: 1;" transform="translate(335.357 272.267)" fill="none" stroke="#FC6240" stroke-width="20px" stroke-linecap="round" stroke-linejoin="round" stroke-miterlimit="22.926" stroke-dasharray="none" stroke-opacity="" data-original="#000000" opacity="1"></path><path d="m0 0 .006-.004" style="stroke-linecap: round; stroke-linejoin: round; stroke-miterlimit: 22.926; stroke-dasharray: none; stroke-opacity: 1;" transform="translate(309.733 297.885)" fill="none" stroke="#FC6240" stroke-width="20px" stroke-linecap="round" stroke-linejoin="round" stroke-miterlimit="22.926" stroke-dasharray="none" stroke-opacity="" data-original="#000000" opacity="1"></path><path d="M0 0c16.523 0 30 13.477 30 30S16.523 60.001 0 60.001-30 46.523-30 30C-30 13.477-16.523 0 0 0Z" style="stroke-linecap: round; stroke-linejoin: round; stroke-miterlimit: 2.613; stroke-dasharray: none; stroke-opacity: 1;" transform="translate(274.741 207.26)" fill="none" stroke="#FC6240" stroke-width="20px" stroke-linecap="round" stroke-linejoin="round" stroke-miterlimit="2.613" stroke-dasharray="none" stroke-opacity="" data-original="#000000" opacity="1"></path><path d="m0 0 18.628 32.265" style="stroke-linecap: round; stroke-linejoin: round; stroke-miterlimit: 2.613; stroke-dasharray: none; stroke-opacity: 1;" transform="translate(265.427 389.758)" fill="none" stroke="#FC6240" stroke-width="20px" stroke-linecap="round" stroke-linejoin="round" stroke-miterlimit="2.613" stroke-dasharray="none" stroke-opacity="" data-original="#000000" opacity="1"></path><path d="m0 0-32.265 18.628" style="stroke-linecap: round; stroke-linejoin: round; stroke-miterlimit: 2.613; stroke-dasharray: none; stroke-opacity: 1;" transform="translate(122.244 227.947)" fill="none" stroke="#FC6240" stroke-width="20px" stroke-linecap="round" stroke-linejoin="round" stroke-miterlimit="2.613" stroke-dasharray="none" stroke-opacity="" data-original="#000000" opacity="1"></path><path d="M0 0h-37.256" style="stroke-linecap: round; stroke-linejoin: round; stroke-miterlimit: 2.613; stroke-dasharray: none; stroke-opacity: 1;" transform="translate(147.332 152.946)" fill="none" stroke="#FC6240" stroke-width="20px" stroke-linecap="round" stroke-linejoin="round" stroke-miterlimit="2.613" stroke-dasharray="none" stroke-opacity="" data-original="#000000" opacity="1"></path><path d="m0 0-32.265-18.628" style="stroke-linecap: round; stroke-linejoin: round; stroke-miterlimit: 2.613; stroke-dasharray: none; stroke-opacity: 1;" transform="translate(206.559 100.538)" fill="none" stroke="#FC6240" stroke-width="20px" stroke-linecap="round" stroke-linejoin="round" stroke-miterlimit="2.613" stroke-dasharray="none" stroke-opacity="" data-original="#000000" opacity="1"></path><path d="m0 0-18.628-32.265" style="stroke-linecap: round; stroke-linejoin: round; stroke-miterlimit: 2.613; stroke-dasharray: none; stroke-opacity: 1;" transform="translate(284.055 84.764)" fill="none" stroke="#FC6240" stroke-width="20px" stroke-linecap="round" stroke-linejoin="round" stroke-miterlimit="2.613" stroke-dasharray="none" stroke-opacity="" data-original="#000000" opacity="1"></path><path d="M0 0v-37.256" style="stroke-linecap: round; stroke-linejoin: round; stroke-miterlimit: 2.613; stroke-dasharray: none; stroke-opacity: 1;" transform="translate(359.055 109.852)" fill="none" stroke="#FC6240" stroke-width="20px" stroke-linecap="round" stroke-linejoin="round" stroke-miterlimit="2.613" stroke-dasharray="none" stroke-opacity="" data-original="#000000" opacity="1"></path><path d="m0 0 18.628-32.265" style="stroke-linecap: round; stroke-linejoin: round; stroke-miterlimit: 2.613; stroke-dasharray: none; stroke-opacity: 1;" transform="translate(411.464 169.078)" fill="none" stroke="#FC6240" stroke-width="20px" stroke-linecap="round" stroke-linejoin="round" stroke-miterlimit="2.613" stroke-dasharray="none" stroke-opacity="" data-original="#000000" opacity="1"></path><path d="m0 0 32.265-18.627" style="stroke-linecap: round; stroke-linejoin: round; stroke-miterlimit: 2.613; stroke-dasharray: none; stroke-opacity: 1;" transform="translate(427.238 246.574)" fill="none" stroke="#FC6240" stroke-width="20px" stroke-linecap="round" stroke-linejoin="round" stroke-miterlimit="2.613" stroke-dasharray="none" stroke-opacity="" data-original="#000000" opacity="1"></path><path d="M0 0h37.256" style="stroke-linecap: round; stroke-linejoin: round; stroke-miterlimit: 2.613; stroke-dasharray: none; stroke-opacity: 1;" transform="translate(402.15 321.575)" fill="none" stroke="#FC6240" stroke-width="20px" stroke-linecap="round" stroke-linejoin="round" stroke-miterlimit="2.613" stroke-dasharray="none" stroke-opacity="" data-original="#000000" opacity="1"></path><path d="m0 0 32.265 18.628" style="stroke-linecap: round; stroke-linejoin: round; stroke-miterlimit: 2.613; stroke-dasharray: none; stroke-opacity: 1;" transform="translate(342.923 373.984)" fill="none" stroke="#FC6240" stroke-width="20px" stroke-linecap="round" stroke-linejoin="round" stroke-miterlimit="2.613" stroke-dasharray="none" stroke-opacity="" data-original="#000000" opacity="1"></path><path d="M0 0h.007" style="stroke-linecap: round; stroke-linejoin: round; stroke-miterlimit: 2.613; stroke-dasharray: none; stroke-opacity: 1;" transform="translate(274.74 127.262)" fill="none" stroke="#FC6240" stroke-width="20px" stroke-linecap="round" stroke-linejoin="round" stroke-miterlimit="2.613" stroke-dasharray="none" stroke-opacity="" data-original="#000000" opacity="1"></path></g></g></svg>