<svg xmlns="http://www.w3.org/2000/svg" version="1.1" xmlns:xlink="http://www.w3.org/1999/xlink" width="512" height="512" x="0" y="0" viewBox="0 0 64 64" style="enable-background:new 0 0 512 512" xml:space="preserve" class=""><g><path d="M41 16c-8.822 0-16 7.178-16 16s7.178 16 16 16 16-7.178 16-16-7.178-16-16-16zm0 29.586-2.741-2.741 1.748-2.913c.326.04.656.068.993.068zM41 38c-3.309 0-6-2.691-6-6s2.691-6 6-6 6 2.691 6 6-2.691 6-6 6zm-5.654-11.654-3.953-3.952h3.876l.825 3.301a7.98 7.98 0 0 0-.748.651zM33 32h-5.586l2.741-2.741 2.913 1.748A8.13 8.13 0 0 0 33 32zm2.346 5.654-3.952 3.952V37.73l3.301-.825c.203.262.417.515.651.749zM41 18.414l2.741 2.741-1.748 2.913A8.13 8.13 0 0 0 41 24zm5.654 19.24 3.952 3.952H46.73l-.825-3.301c.262-.203.515-.417.749-.651zM49 32h5.586l-2.741 2.741-2.913-1.748A8.13 8.13 0 0 0 49 32zm-2.346-5.654 3.952-3.953v3.876l-3.301.825a7.98 7.98 0 0 0-.651-.748zm-1.598-1.23a7.9 7.9 0 0 0-1.045-.523l2.249-3.748-2.582-2.581a13.921 13.921 0 0 1 5.691 2.54zM39 24.263c-.38.098-.754.215-1.11.366l-1.059-4.236h-3.652A13.923 13.923 0 0 1 39 18.159zm-4.884 3.681a7.9 7.9 0 0 0-.523 1.045l-3.748-2.249-2.581 2.582a13.921 13.921 0 0 1 2.54-5.691zM33.263 34c.098.38.215.754.366 1.11l-4.236 1.059v3.652A13.922 13.922 0 0 1 27.16 34zm3.681 4.884a7.9 7.9 0 0 0 1.045.523l-2.249 3.748 2.582 2.581a13.915 13.915 0 0 1-5.691-2.54zm6.056.853c.38-.098.754-.215 1.11-.366l1.059 4.236h3.652A13.922 13.922 0 0 1 43 45.84zm4.884-3.681a7.9 7.9 0 0 0 .523-1.045l3.748 2.249 2.581-2.582a13.915 13.915 0 0 1-2.54 5.691zM48.737 30a7.882 7.882 0 0 0-.366-1.11l4.236-1.059v-3.652A13.923 13.923 0 0 1 54.841 30z" fill="#FC6240" opacity="1" data-original="#000000"></path><path d="M41 28c-2.206 0-4 1.794-4 4s1.794 4 4 4 4-1.794 4-4-1.794-4-4-4zm0 6c-1.103 0-2-.897-2-2s.897-2 2-2 2 .897 2 2-.897 2-2 2zM21 48c-1.654 0-3 1.346-3 3s1.346 3 3 3 3-1.346 3-3-1.346-3-3-3zm0 4c-.551 0-1-.449-1-1s.449-1 1-1 1 .449 1 1-.449 1-1 1z" fill="#FC6240" opacity="1" data-original="#000000"></path><path d="M63 11c0-3.86-3.14-7-7-7H38c-3.86 0-7 3.14-7 7v1.414c-.232.119-.462.24-.689.367A3.994 3.994 0 0 0 27 11c-2.206 0-4 1.794-4 4 0 1.086.442 2.091 1.192 2.828A22.224 22.224 0 0 0 22 20.931V19c0-1.654-1.346-3-3-3h-2c-1.654 0-3 1.346-3 3v3h-2v-7c0-1.654-1.346-3-3-3H7c-1.654 0-3 1.346-3 3v7c-1.654 0-3 1.346-3 3v14c0 1.654 1.346 3 3 3v9c0 1.654 1.346 3 3 3h2c1.654 0 3-1.346 3-3v-9h2v9c0 3.86 3.14 7 7 7h13.184A2.996 2.996 0 0 0 37 60h2c1.654 0 3-1.346 3-3v-3.025C53.668 53.45 63 43.796 63 32c0-.335-.01-.668-.025-1H63zm-36 2c.649 0 1.24.324 1.607.834a22.126 22.126 0 0 0-3.051 2.516A1.952 1.952 0 0 1 25 15c0-1.103.897-2 2-2zm-7.905 17H17v2h2c0 1.366.132 2.702.371 4H7v-8h12.371a21.914 21.914 0 0 0-.276 2zM16 19c0-.551.449-1 1-1h2c.551 0 1 .449 1 1v3h-4zM6 15c0-.551.449-1 1-1h2c.551 0 1 .449 1 1v7H6zM3 39V25c0-.551.449-1 1-1h16.512a21.543 21.543 0 0 0-.674 2H7c-1.103 0-2 .897-2 2v8c0 1.103.897 2 2 2h12.839c.193.681.418 1.348.674 2H4c-.551 0-1-.449-1-1zm7 12c0 .551-.449 1-1 1H7c-.551 0-1-.449-1-1v-9h4zm6 0v-9h5.414A22.11 22.11 0 0 0 34 52.852V56H21c-2.757 0-5-2.243-5-5zm23 7h-2c-.551 0-1-.449-1-1v-3.58a21.95 21.95 0 0 0 4 .555V57c0 .551-.449 1-1 1zm2-6c-11.028 0-20-8.972-20-20s8.972-20 20-20 20 8.972 20 20-8.972 20-20 20zm0-42c-2.822 0-5.519.54-8 1.512V11c0-2.757 2.243-5 5-5h18c2.757 0 5 2.243 5 5v11.852C57.521 15.276 49.867 10 41 10z" fill="#FC6240" opacity="1" data-original="#000000"></path><path d="M57 8c-1.654 0-3 1.346-3 3s1.346 3 3 3 3-1.346 3-3-1.346-3-3-3zm0 4c-.551 0-1-.449-1-1s.449-1 1-1 1 .449 1 1-.449 1-1 1zM9 30h2v2H9zM13 30h2v2h-2z" fill="#FC6240" opacity="1" data-original="#000000"></path></g></svg>