<svg xmlns="http://www.w3.org/2000/svg" version="1.1" xmlns:xlink="http://www.w3.org/1999/xlink" width="512" height="512" x="0" y="0" viewBox="0 0 492 492" style="enable-background:new 0 0 512 512" xml:space="preserve" class=""><g><g fill-rule="evenodd" clip-rule="evenodd"><path d="M64.4 226.2c-2 13.6-2.7 28-2.3 41.8h20.2c12.5 0 18.3-11.9 21.6-22.5l6.1-20.2H64.5c0 .3-.1.6-.1.9z" fill="#FC6240" opacity="1" data-original="#000000"></path><path d="M115.3 217c2.6 0 4.7 2.5 3.9 5.2l-7.6 25.4c-4.3 14.3-12.7 28.5-29.3 28.5H62.4c1.2 18.4 4.4 36.8 10.2 54.3.6 1.8.3 2.1 1.5 4.8 5.5 12.9 18.3 18.2 31.8 18.2h6.1c6.6-77.2 71.2-137.1 149.2-137.1 76.8 0 141.8 58.4 149.1 134.6l15.8-1.7 4.4-210.1c-103.9-1.3-272.5 12.8-362.2 70-.8.5-.6.2-.9 1.1-.6 2.1-1.1 4.3-1.6 6.5h49.5zm290-41.2H371c-5.4 0-5.4-8.2 0-8.2h34.3c5.4-.1 5.4 8.2 0 8.2zM371 202.5c-5.4 0-5.4-8.2 0-8.2h34.3c5.4 0 5.4 8.2 0 8.2z" fill="#FC6240" opacity="1" data-original="#000000"></path><path d="M261.3 224.6c-73.6 0-134.3 56.4-141.1 129l24.3.6.2-1.8c6.9-58.9 57.3-103.5 116.6-103.5S370.4 293 377.8 351.5l.2 1.9 24.2-1.5c-8.2-71.5-68.3-127.3-140.9-127.3z" fill="#FC6240" opacity="1" data-original="#000000"></path></g></g></svg>