<svg xmlns="http://www.w3.org/2000/svg" version="1.1" xmlns:xlink="http://www.w3.org/1999/xlink" width="512" height="512" x="0" y="0" viewBox="0 0 64 64" style="enable-background:new 0 0 512 512" xml:space="preserve"><g><path d="M53.614 45.198A12.868 12.868 0 0 0 55 39.395c0-2.993-.348-5.988-1.033-8.901l-2.268-9.638A4.98 4.98 0 0 0 46.832 17h-.858c-.914-1.207-2.348-2-3.974-2h-3v-2h1c1.654 0 3-1.346 3-3V4c0-1.654-1.346-3-3-3H24c-1.654 0-3 1.346-3 3v6c0 1.654 1.346 3 3 3h1v2h-3c-1.627 0-3.061.793-3.974 2h-.858a4.98 4.98 0 0 0-4.867 3.854l-2.268 9.639A38.94 38.94 0 0 0 9 39.395c0 2.031.481 4.008 1.386 5.803C7.314 45.962 5 48.865 5 52.252v2.586c0 .878.141 1.746.419 2.581A8.153 8.153 0 0 0 13.162 63h37.676A8.153 8.153 0 0 0 59 54.838v-2.586c0-3.387-2.314-6.29-5.386-7.054zM23 10V4a1 1 0 0 1 1-1h16a1 1 0 0 1 1 1v6a1 1 0 0 1-1 1H24a1 1 0 0 1-1-1zm4 3h10v2H27zM11.98 30.951l2.268-9.639a2.985 2.985 0 0 1 2.852-2.307c-.065.322-.1.655-.1.995v5h2v-5c0-1.654 1.346-3 3-3h20c1.654 0 3 1.346 3 3v5h2v-5c0-.34-.035-.673-.101-.994a2.984 2.984 0 0 1 2.852 2.308l2.268 9.639c.65 2.763.98 5.604.98 8.442 0 1.996-.548 3.932-1.576 5.633a6.956 6.956 0 0 0-4.299 1.948 6.934 6.934 0 0 0-2.076 4.214 16.118 16.118 0 0 0-3.22-1.43A72.89 72.89 0 0 1 41 38.917V19h-2v19.917c0 3.448.256 6.911.734 10.328A15.837 15.837 0 0 0 37 49H27c-.918 0-1.833.087-2.734.245.478-3.417.734-6.88.734-10.328V19h-2v19.917c0 3.622-.288 7.262-.83 10.843a16.118 16.118 0 0 0-3.22 1.43 6.931 6.931 0 0 0-2.076-4.214 6.944 6.944 0 0 0-4.296-1.944A10.864 10.864 0 0 1 11 39.395c0-2.839.33-5.68.98-8.444zM57 54.838A6.156 6.156 0 0 1 50.838 61H13.162A6.155 6.155 0 0 1 7 54.838v-2.586c0-2.814 2.174-5.169 4.846-5.249a4.957 4.957 0 0 1 3.636 1.408A4.961 4.961 0 0 1 17 52v2c0 2.757 2.243 5 5 5h2v-2h-2c-1.654 0-3-1.346-3-3v-.476A14.09 14.09 0 0 1 27 51h10c2.847 0 5.664.899 8 2.524V54c0 1.654-1.346 3-3 3h-2v2h2c2.757 0 5-2.243 5-5v-2c0-1.364.539-2.639 1.519-3.589a4.973 4.973 0 0 1 3.636-1.408c2.671.08 4.845 2.435 4.845 5.249zM62 6c-2.206 0-4-1.794-4-4a1 1 0 1 0-2 0c0 2.206-1.794 4-4 4a1 1 0 1 0 0 2c2.206 0 4 1.794 4 4a1 1 0 1 0 2 0c0-2.206 1.794-4 4-4a1 1 0 1 0 0-2zm-5 2.687A6.049 6.049 0 0 0 55.313 7 6.049 6.049 0 0 0 57 5.313 6.049 6.049 0 0 0 58.687 7 6.049 6.049 0 0 0 57 8.687zM7 22a1 1 0 0 0 1-1c0-2.206 1.794-4 4-4a1 1 0 1 0 0-2c-2.206 0-4-1.794-4-4a1 1 0 1 0-2 0c0 2.206-1.794 4-4 4a1 1 0 1 0 0 2c2.206 0 4 1.794 4 4a1 1 0 0 0 1 1zm0-7.687A6.049 6.049 0 0 0 8.687 16 6.049 6.049 0 0 0 7 17.687 6.049 6.049 0 0 0 5.313 16 6.049 6.049 0 0 0 7 14.313z" fill="#FC6240" opacity="1" data-original="#000000"></path></g></svg>