<svg xmlns="http://www.w3.org/2000/svg" version="1.1" xmlns:xlink="http://www.w3.org/1999/xlink" width="512" height="512" x="0" y="0" viewBox="0 0 60 60" style="enable-background:new 0 0 512 512" xml:space="preserve" class=""><g><path fill="#FC6240" fill-rule="nonzero" d="M.88 49.218a3 3 0 0 0 4.242 0l4.6-4.6 5.664 5.665-4.605 4.595a3.002 3.002 0 1 0 4.246 4.245l4.725-4.733c1.142.56 2.515.33 3.41-.575l2.123-2.123 5.66 5.661a3 3 0 0 0 4.243-4.244l-2.123-2.123.709-.709a4 4 0 0 0 0-5.656L32.36 43.2l2.123-2.123a4 4 0 0 0 0-5.657l-1.415-1.416.686-.686a1.862 1.862 0 0 1 1.821-.4 4.028 4.028 0 0 0 3.86-1.04l19.1-19.1a4.006 4.006 0 0 0 .579-4.937 5 5 0 0 0-.579-6.381A5.056 5.056 0 0 0 52.12.872a3.988 3.988 0 0 0-4.9.593l-19.1 19.1a4.024 4.024 0 0 0-1.04 3.86c.202.635.05 1.33-.4 1.821l-.687.687-1.416-1.416a4 4 0 0 0-5.656 0L16.8 27.64l-1.416-1.416a4.093 4.093 0 0 0-5.656 0l-.709.709-2.125-2.123a3.072 3.072 0 0 0-4.246 0 3 3 0 0 0 0 4.242l5.661 5.66-2.123 2.125a2.994 2.994 0 0 0-.575 3.4L.879 44.974a3 3 0 0 0 .001 4.244zm12.734 8.49a1.03 1.03 0 0 1-1.417 0 1 1 0 0 1 0-1.416L16.8 51.7l1.41 1.4zM28.1 27.66a3.836 3.836 0 0 0 .916-3.745 2.017 2.017 0 0 1 .52-1.936l19.1-19.1a1.991 1.991 0 0 1 2.451-.3c.683.42 1.548.4 2.211-.051a3 3 0 0 1 4.172 4.179 2.03 2.03 0 0 0-.051 2.211 1.994 1.994 0 0 1-.3 2.451l-19.1 19.1a2.019 2.019 0 0 1-1.936.521 3.831 3.831 0 0 0-3.745.916l-.687.686-1.415-1.415 4.246-4.245a3.001 3.001 0 0 0 4.244-4.244l9.9-9.9a1 1 0 0 0-1.414-1.414l-9.9 9.9a3.001 3.001 0 1 0-4.244 4.244l-4.245 4.245-1.416-1.415zm9.213-3.56a1 1 0 0 1-1.413 1.418L34.482 24.1a1 1 0 0 1 0-1.415 1.024 1.024 0 0 1 1.414 0zm-16.977 2.831a2.049 2.049 0 0 1 2.828 0c2.03 2.028 6.142 6.142 9.905 9.9a2 2 0 0 1 0 2.829l-2.123 2.123-12.734-12.729zm-9.9 1.416.709-.709a2.047 2.047 0 0 1 2.828 0l18.394 18.4a2 2 0 0 1 0 2.828l-.709.709zm-6.385-2.1.02-.02a1.023 1.023 0 0 1 1.413 0c12.431 12.431 23.946 23.94 28.3 28.3a1 1 0 0 1 0 1.416 1.025 1.025 0 0 1-1.414 0l-28.3-28.3a1 1 0 0 1-.024-1.4zM7.6 38.25l2.123-2.123 14.149 14.149L21.75 52.4a1 1 0 0 1-1.415 0L7.6 39.666a1 1 0 0 1 0-1.416zm-5.307 8.138 4.6-4.6L8.31 43.2l-4.6 4.6a1.023 1.023 0 0 1-1.413 0 1 1 0 0 1-.004-1.412z" opacity="1" data-original="#000000" class=""></path></g></svg>