<svg xmlns="http://www.w3.org/2000/svg" version="1.1" xmlns:xlink="http://www.w3.org/1999/xlink" width="512" height="512" x="0" y="0" viewBox="0 0 64 64" style="enable-background:new 0 0 512 512" xml:space="preserve" class=""><g><path d="m18.269 25.982 6.427 11.132c.378.654.606 1.372.691 2.107a5.471 5.471 0 0 1 3.922-2.667l1.336-.204a5.494 5.494 0 0 1-1.62-1.735l-6.427-11.132a21.69 21.69 0 0 0-4.329 2.499zM19.17 5.55l-14.72 8.5-.75-1.3c-.2-.35-.25-.75-.15-1.14.11-.38.35-.71.7-.91l12.12-7c.24-.13.49-.2.75-.2a1.493 1.493 0 0 1 1.3.75zM21.17 9.01l-14.72 8.5-1.5-2.59 14.72-8.51zM32.003 35.978a4.467 4.467 0 0 0 2.105-1.863l.74-1.282a.497.497 0 0 1-.348-.471V29.5h-5v2.861a.497.497 0 0 1-.348.471l.74 1.282a4.516 4.516 0 0 0 2.111 1.864z" fill="#FC6240" opacity="1" data-original="#000000" class=""></path><path d="M45.731 25.982a21.723 21.723 0 0 0-4.33-2.5l-6.427 11.132a5.472 5.472 0 0 1-3.935 2.687l-1.579.241a4.48 4.48 0 0 0-3.22 2.198l-.549.95 2.642 1.525c1.341-1.816 3.852-2.396 5.854-1.239a4.451 4.451 0 0 1 1.855 5.689l2.64 1.524.548-.95a4.473 4.473 0 0 0 .294-3.888l-.581-1.487a5.473 5.473 0 0 1 .36-4.751zM25.193 41.556l-2.5 4.331 1.923 1.11a.501.501 0 0 1 .224.272 7.495 7.495 0 0 0 3.349 4.1 7.491 7.491 0 0 0 5.224.85.49.49 0 0 1 .349.058l1.923 1.11 2.5-4.331-2.628-1.517a4.505 4.505 0 0 1-3.626 1.834 4.463 4.463 0 0 1-2.242-.603c-2.001-1.155-2.757-3.62-1.854-5.69z" fill="#FC6240" opacity="1" data-original="#000000" class=""></path><path d="M30.187 47.905a3.508 3.508 0 0 0 4.781-1.282c.468-.81.592-1.753.35-2.655a3.48 3.48 0 0 0-1.631-2.126 3.503 3.503 0 0 0-4.781 1.281 3.505 3.505 0 0 0 1.281 4.782zM17.06 17.393a1.502 1.502 0 0 0-1.296 2.25 1.5 1.5 0 1 0 1.296-2.25zM46.187 20.192a1.504 1.504 0 0 0 2.049-.55 1.503 1.503 0 0 0-.549-2.05c-.717-.413-1.636-.166-2.049.55s-.166 1.636.549 2.05z" fill="#FC6240" opacity="1" data-original="#000000" class=""></path><path d="M35.954 20.917a22.706 22.706 0 0 1 14.723 8.5l6.372-11.038-14.723-8.5zm8.818-3.274a2.505 2.505 0 0 1 3.415-.916 2.504 2.504 0 0 1 .915 3.416 2.502 2.502 0 0 1-3.415.916 2.505 2.505 0 0 1-.915-3.416zM21.674 9.879l-14.723 8.5 6.372 11.038a22.706 22.706 0 0 1 14.723-8.5zm-3.362 11.179a2.5 2.5 0 0 1-2.5-4.33c1.194-.688 2.725-.278 3.415.915s.279 2.725-.915 3.415zM44.152 42.115a12.43 12.43 0 0 0-1.521-3.666.5.5 0 0 1 .072-.616l2.025-2.025-2.228-2.229-2.33 4.035a4.473 4.473 0 0 0-.294 3.888l.581 1.487a5.473 5.473 0 0 1-.36 4.751l-.798 1.383-3 5.196a.502.502 0 0 1-.683.183l-2.195-1.268a8.487 8.487 0 0 1-5.733-1 8.482 8.482 0 0 1-3.733-4.465l-2.195-1.268a.5.5 0 0 1-.183-.683l2.611-4.522a4.493 4.493 0 0 0-.357-3.683l-2.33-4.035-2.228 2.229 2.025 2.025a.5.5 0 0 1 .072.616 12.43 12.43 0 0 0-1.521 3.666.499.499 0 0 1-.486.385H16.5v5h2.862c.232 0 .433.159.486.385a12.43 12.43 0 0 0 1.521 3.666.5.5 0 0 1-.072.616l-2.025 2.025 3.536 3.535 2.025-2.024a.498.498 0 0 1 .616-.072 12.404 12.404 0 0 0 3.666 1.521.5.5 0 0 1 .385.486V60.5h5v-2.861c0-.231.159-.434.385-.486a12.43 12.43 0 0 0 3.666-1.521.498.498 0 0 1 .616.072l2.025 2.024 3.536-3.535-2.025-2.025a.5.5 0 0 1-.072-.616 12.43 12.43 0 0 0 1.521-3.666.499.499 0 0 1 .486-.385H47.5v-5h-2.862a.5.5 0 0 1-.486-.386zM44.33 6.42l14.72 8.5-1.5 2.59-14.72-8.5zM60.3 12.75l-.75 1.3-14.72-8.5.75-1.3c.2-.35.52-.59.91-.7.39-.1.79-.05 1.14.15l12.12 7c.35.2.59.53.7.91.1.39.05.79-.15 1.14z" fill="#FC6240" opacity="1" data-original="#000000" class=""></path></g></svg>