<svg xmlns="http://www.w3.org/2000/svg" version="1.1" xmlns:xlink="http://www.w3.org/1999/xlink" width="512" height="512" x="0" y="0" viewBox="0 0 512 512" style="enable-background:new 0 0 512 512" xml:space="preserve"><g><g data-name="Out line"><path d="M405.657 18.343A8 8 0 0 0 400 16h-24a8 8 0 0 0-5.657 2.343l-16 16a8 8 0 0 0 0 11.314L356.686 48 344 60.686l-2.343-2.343a8.002 8.002 0 0 0-11.314 0l-88 88a8 8 0 0 0 6.972 13.549 86.616 86.616 0 0 1 48.012 5.708 184.206 184.206 0 0 1-116.684 96.115l-12.804 3.492a87.042 87.042 0 0 0-69.496 25.136l-80 80a8 8 0 0 0 0 11.314l32 32a8 8 0 0 0 11.314 0L80 395.314 116.686 432l-18.343 18.343a8 8 0 0 0 0 11.314l32 32a8 8 0 0 0 11.314 0l80-80a87.04 87.04 0 0 0 25.137-69.498l3.492-12.802a184.205 184.205 0 0 1 96.113-116.683 86.647 86.647 0 0 1 5.71 48.01 8 8 0 0 0 13.548 6.973l88-88a8 8 0 0 0 0-11.314L451.314 168 464 155.314l2.343 2.343a8 8 0 0 0 11.314 0l16-16A8 8 0 0 0 496 136v-24a8 8 0 0 0-2.343-5.657Zm-219.314 360A37.254 37.254 0 1 1 197.255 352a37.298 37.298 0 0 1-10.912 26.343Zm-64 11.314a53.341 53.341 0 0 0 69.231 5.231l12.788 12.788a71.187 71.187 0 0 1-100.038-100.038l12.783 12.783a53.275 53.275 0 0 0 5.236 69.236Zm-48.216-52.47a87.891 87.891 0 0 0 0 29.626L59.314 352ZM56 396.688 35.313 376 48 363.314 68.686 384Zm80 80L115.313 456 128 443.314 148.686 464Zm24-24-14.813-14.814a86.223 86.223 0 0 0 29.626 0Zm55.676-56.325-12.783-12.783a53.261 53.261 0 0 0-74.467-74.467l-12.788-12.788a71.187 71.187 0 0 1 100.038 100.038Zm70.766-158.118a200.61 200.61 0 0 0-47.705 76.314 87.016 87.016 0 0 0-41.296-41.295 200.61 200.61 0 0 0 76.314-47.704 199.378 199.378 0 0 0 37.675-52.375 86.207 86.207 0 0 1 13.322 10.882l3.182 3.182a86.177 86.177 0 0 1 10.881 13.322 199.377 199.377 0 0 0-52.373 37.674Zm82.716 5.284a102.796 102.796 0 0 0-29.91-67.594l-3.182-3.182a102.775 102.775 0 0 0-67.595-29.91L336 75.314 436.686 176ZM440 156.686 355.314 72 368 59.314 452.686 144Zm40-24-8 8L371.313 40l8-8h17.373L480 115.313Z" fill="#FC6240" opacity="1" data-original="#000000"></path><path d="M360 176a24 24 0 1 0-24-24 24.027 24.027 0 0 0 24 24Zm0-32a8 8 0 1 1-8 8 8.01 8.01 0 0 1 8-8ZM266.343 317.657 336 387.314V440a8 8 0 0 0 2.343 5.657l40 40A8 8 0 0 0 384 488h56a8 8 0 0 0 5.657-2.343l40-40A8 8 0 0 0 488 440v-56a8 8 0 0 0-2.343-5.657l-40-40A8 8 0 0 0 440 336h-52.686l-77.657-77.657-11.314 11.314L372.687 344 344 372.687l-66.343-66.344ZM387.314 352h49.373L472 387.313v49.373L436.687 472h-49.373L352 436.687v-49.373ZM58.343 165.657A8 8 0 0 0 64 168h52.686l77.657 77.657 11.314-11.314L131.313 160 160 131.313l82.343 82.344 11.314-11.314L168 116.686V64a8 8 0 0 0-2.343-5.657l-40-40A8 8 0 0 0 120 16H64a8 8 0 0 0-5.657 13.657L104 75.313v17.373L92.687 104H75.314L29.657 58.343A8 8 0 0 0 16 64v56a8 8 0 0 0 2.343 5.657ZM32 83.313l34.343 34.344A8 8 0 0 0 72 120h24a8 8 0 0 0 5.657-2.343l16-16A8 8 0 0 0 120 96V72a8 8 0 0 0-2.343-5.657L83.313 32h33.373L152 67.313v49.373L116.686 152H67.313L32 116.687Z" fill="#FC6240" opacity="1" data-original="#000000"></path><path d="m378.343 429.657 16 16A8 8 0 0 0 400 448h24a8 8 0 0 0 5.657-2.343l16-16A8 8 0 0 0 448 424v-24a8 8 0 0 0-2.343-5.657l-16-16A8 8 0 0 0 424 376h-24a8 8 0 0 0-5.657 2.343l-16 16A8 8 0 0 0 376 400v24a8 8 0 0 0 2.343 5.657ZM392 403.313 403.313 392h17.373L432 403.313v17.373L420.687 432h-17.373L392 420.687ZM154.342 165.658l11.313-11.314 52.002 51.997-11.313 11.315zM286.342 297.658l11.313-11.314 52.002 51.997-11.313 11.315z" fill="#FC6240" opacity="1" data-original="#000000"></path></g></g></svg>